<svg fill="none" height="300" viewBox="0 0 32 32" width="300" xmlns="http://www.w3.org/2000/svg" version="1.1" xmlns:xlink="http://www.w3.org/1999/xlink" xmlns:svgjs="http://svgjs.dev/svgjs"><g width="100%" height="100%" transform="matrix(1,0,0,1,0,0)"><path clip-rule="evenodd" d="m12 6.00001 9-.00001c1.933 0 3.5 1.567 3.5 3.5v12.5c0 .8284.6716 1.5 1.5 1.5s1.5-.6716 1.5-1.5v-12.5c0-3.58985-2.9102-6.5-6.5-6.5l-9 .00001c-.8284 0-1.5.67158-1.5 1.5 0 .82843.6716 1.5 1.5 1.5zm-3 1.5c-2.20914 0-4 1.79086-4 3.99999v13.5c0 2.2091 1.79086 4 4 4h10c2.2091 0 4-1.7909 4-4v-13.5c0-2.20913-1.7909-3.99999-4-3.99999z" fill="#ffffff" fill-rule="evenodd" fill-opacity="1" data-original-color="#000000ff" stroke="none" stroke-opacity="1"/></g></svg>