<svg fill="none" height="300" viewBox="0 0 32 32" width="300" xmlns="http://www.w3.org/2000/svg" version="1.1" xmlns:xlink="http://www.w3.org/1999/xlink" xmlns:svgjs="http://svgjs.dev/svgjs"><g width="100%" height="100%" transform="matrix(1,0,0,1,0,0)"><path clip-rule="evenodd" d="m7 6c-2.20914 0-4 1.79086-4 4v.5l11.4414 4.8406c.9963.4215 2.1209.4215 3.1172 0l11.4414-4.8406v-.5c0-2.20914-1.7909-4-4-4zm22 6.5-11.4414 4.8406c-.9963.4215-2.1209.4215-3.1172 0l-11.4414-4.8406v9.5c0 2.2091 1.79086 4 4 4h18c2.2091 0 4-1.7909 4-4z" fill="#ffffff" fill-rule="evenodd" fill-opacity="1" data-original-color="#000000ff" stroke="none" stroke-opacity="1"/></g></svg>