<svg id="Layer_1" enable-background="new 0 0 100 100" height="300" viewBox="0 0 100 100" width="300" xmlns="http://www.w3.org/2000/svg" version="1.1" xmlns:xlink="http://www.w3.org/1999/xlink" xmlns:svgjs="http://svgjs.dev/svgjs"><g width="100%" height="100%" transform="matrix(1,0,0,1,0,0)"><g id="_x33_4.Messenger"><path id="Icon_78_" d="m50 10.033c-22.091 0-40 16.6-40 37.077 0 11.665 5.812 22.069 14.897 28.865l.162 13.073c.008.706.772 1.145 1.387.795l12.492-7.094c3.513.935 7.225 1.437 11.063 1.437 22.091 0 40-16.6 40-37.077s-17.91-37.076-40.001-37.076zm3.037 49.028-8.55-8.899c-.501-.522-1.288-.646-1.925-.303l-15.003 8.079c-.571.307-1.132-.424-.687-.896l17.728-18.793c.509-.539 1.366-.539 1.874.001l8.547 9.07c.502.534 1.299.661 1.943.31l14.743-8.027c.571-.31 1.135.422.689.895l-17.493 18.554c-.505.535-1.355.539-1.866.009z" fill="#ffffff" fill-opacity="1" data-original-color="#0081fdff" stroke="none" stroke-opacity="1"/></g></g></svg>