<svg id="Layer_1" enable-background="new 0 0 512 512" viewBox="0 0 512 512" xmlns="http://www.w3.org/2000/svg" width="300" height="300" version="1.1" xmlns:xlink="http://www.w3.org/1999/xlink" xmlns:svgjs="http://svgjs.dev/svgjs"><g width="100%" height="100%" transform="matrix(1,0,0,1,0,0)"><g id="Layer_2_00000046323289557856041410000013776003973420540065_"><g id="Layer_1_copy_2"><path id="_58" d="m404.1 71.1h-247.9c-59.5 0-107.9 44.3-107.9 98.9v173.8l-45 66.3c-6.1 9-3.8 21.3 5.2 27.4 3.3 2.2 7.1 3.4 11.1 3.4h384.4c59.5 0 107.9-44.4 107.9-98.9v-172c.1-54.5-48.3-98.9-107.8-98.9zm-100.1 259.7h-135.3c-10.9 0-19.7-8.8-19.7-19.7s8.8-19.7 19.7-19.7h135.3c10.9 0 19.7 8.8 19.7 19.7s-8.8 19.7-19.7 19.7zm88.7-110.2h-224c-10.9 0-19.7-8.8-19.7-19.7s8.8-19.7 19.7-19.7h224c10.9 0 19.7 8.8 19.7 19.7s-8.8 19.7-19.7 19.7z" fill="#ffffff" fill-opacity="1" data-original-color="#000000ff" stroke="none" stroke-opacity="1"/></g></g></g></svg>