<svg id="Layer_1" enable-background="new 0 0 100 100" height="300" viewBox="0 0 100 100" width="300" xmlns="http://www.w3.org/2000/svg" version="1.1" xmlns:xlink="http://www.w3.org/1999/xlink" xmlns:svgjs="http://svgjs.dev/svgjs"><g width="100%" height="100%" transform="matrix(1,0,0,1,0,0)"><path id="_x30_8.Whatsapp" d="m50 10c-22.09 0-40 17.91-40 40 0 8.76 2.82 16.87 7.61 23.46l-5.5 14.46 15.87-4.52c6.31 4.17 13.88 6.6 22.02 6.6 22.09 0 40-17.91 40-40s-17.91-40-40-40zm21.26 56.57-4.26 4.26c-4.48 4.48-16.36-.45-26.89-10.98-10.54-10.54-15.25-22.42-10.99-26.9l4.26-4.26c1.57-1.57 4.26-1.57 6.05 0l6.28 6.28c2.24 2.24 1.34 6.05-1.57 6.94-2.02.68-3.36 2.92-2.69 4.94 1.12 4.7 7.17 10.53 11.66 11.65 2.01.45 4.26-.67 4.93-2.69.89-2.91 4.71-3.81 6.95-1.57l6.27 6.28c1.57 1.57 1.57 4.26 0 6.05z" fill="#ffffff" fill-opacity="1" data-original-color="#4caf50ff" stroke="none" stroke-opacity="1"/></g></svg>